<svg width="36" height="36" viewBox="0 0 36 36" fill="none" xmlns="http://www.w3.org/2000/svg">
<rect width="35.5789" height="35.5789" rx="17.7895" fill="url(#paint0_linear_12_40)"/>
<g clip-path="url(#clip0_12_40)">
<path d="M25.4954 10.833C24.0779 10.1937 22.5583 9.72114 20.9693 9.45244C20.9552 9.44972 20.9405 9.45147 20.9274 9.45745C20.9143 9.46343 20.9034 9.47333 20.8961 9.4858C20.7016 9.82769 20.4847 10.2734 20.3328 10.6254C18.6475 10.3736 16.9342 10.3736 15.2489 10.6254C15.0797 10.2352 14.8888 9.85476 14.6772 9.4858C14.6701 9.47318 14.6592 9.46305 14.6461 9.45676C14.6331 9.45047 14.6184 9.44831 14.604 9.45059C13.016 9.71928 11.4964 10.1918 10.0779 10.8321C10.0657 10.8372 10.0554 10.8459 10.0483 10.8571C7.16488 15.096 6.37455 19.2302 6.76277 23.3125C6.76385 23.3225 6.76695 23.3321 6.77189 23.3409C6.77683 23.3497 6.78349 23.3573 6.79149 23.3634C8.47444 24.5887 10.3515 25.5221 12.3442 26.1245C12.3581 26.1288 12.373 26.1288 12.3868 26.1245C12.4007 26.1202 12.413 26.1118 12.422 26.1004C12.8508 25.527 13.2308 24.9186 13.558 24.2816C13.5625 24.2729 13.5651 24.2633 13.5656 24.2535C13.5662 24.2437 13.5646 24.2339 13.561 24.2248C13.5574 24.2156 13.5518 24.2074 13.5448 24.2006C13.5377 24.1938 13.5292 24.1885 13.52 24.1853C12.9214 23.9599 12.3415 23.6879 11.7855 23.3718C11.7755 23.3661 11.7671 23.358 11.761 23.3482C11.7549 23.3385 11.7513 23.3273 11.7506 23.3159C11.7499 23.3044 11.752 23.2929 11.7568 23.2824C11.7616 23.272 11.7689 23.2629 11.7781 23.256C11.8948 23.1698 12.0116 23.0799 12.1228 22.99C12.1328 22.982 12.1448 22.9768 12.1576 22.9752C12.1704 22.9735 12.1833 22.9755 12.195 22.9808C15.8335 24.6152 19.7741 24.6152 23.37 22.9808C23.3817 22.9752 23.3948 22.973 23.4078 22.9744C23.4207 22.9759 23.433 22.981 23.4432 22.9891C23.5544 23.0799 23.6702 23.1698 23.7878 23.256C23.7971 23.2627 23.8046 23.2717 23.8095 23.2821C23.8145 23.2925 23.8168 23.3039 23.8162 23.3154C23.8157 23.3268 23.8123 23.338 23.8064 23.3478C23.8004 23.3577 23.7922 23.3659 23.7823 23.3718C23.2282 23.6905 22.6519 23.9601 22.0469 24.1843C22.0376 24.1877 22.0291 24.193 22.0221 24.1999C22.015 24.2068 22.0095 24.2152 22.0059 24.2244C22.0023 24.2336 22.0007 24.2435 22.0012 24.2533C22.0017 24.2632 22.0044 24.2729 22.0089 24.2816C22.3425 24.9182 22.7242 25.5241 23.1439 26.0995C23.1526 26.1113 23.1648 26.1201 23.1787 26.1248C23.1926 26.1294 23.2077 26.1296 23.2217 26.1254C25.2178 25.5247 27.098 24.5909 28.7828 23.3634C28.791 23.3577 28.7979 23.3503 28.803 23.3416C28.8081 23.333 28.8114 23.3234 28.8124 23.3134C29.2757 18.5936 28.036 14.4928 25.5242 10.8589C25.518 10.8471 25.5078 10.8379 25.4954 10.833ZM14.1019 20.8266C13.0067 20.8266 12.1033 19.8361 12.1033 18.6214C12.1033 17.4058 12.9891 16.4163 14.1019 16.4163C15.223 16.4163 16.118 17.4142 16.1004 18.6214C16.1004 19.837 15.2146 20.8266 14.1019 20.8266ZM21.491 20.8266C20.3949 20.8266 19.4924 19.8361 19.4924 18.6214C19.4924 17.4058 20.3773 16.4163 21.491 16.4163C22.6121 16.4163 23.5071 17.4142 23.4895 18.6214C23.4895 19.837 22.613 20.8266 21.491 20.8266Z" fill="#6BFCFC"/>
</g>
<defs>
<linearGradient id="paint0_linear_12_40" x1="35.579" y1="9.43728e-06" x2="-3.50413" y2="4.39123" gradientUnits="userSpaceOnUse">
<stop stop-color="#343FA1"/>
<stop offset="1" stop-color="#6350BB"/>
</linearGradient>
<clipPath id="clip0_12_40">
<rect x="6.67105" y="6.67102" width="22.2368" height="22.2368" rx="11.1184" fill="white"/>
</clipPath>
</defs>
</svg>
