<svg width="36" height="36" viewBox="0 0 36 36" fill="none" xmlns="http://www.w3.org/2000/svg">
<rect width="35.5789" height="35.5789" rx="17.7895" fill="url(#paint0_linear_12_35)"/>
<g clip-path="url(#clip0_12_35)">
<path d="M26.8961 8H9.10389C8.81112 8 8.53034 8.1163 8.32332 8.32332C8.1163 8.53034 8 8.81112 8 9.10389V26.8964C8.00007 27.1891 8.11641 27.4698 8.32342 27.6768C8.53043 27.8837 8.81117 28 9.10389 28H18.6825V20.255H16.0761V17.2367H18.6825V15.0106C18.6825 12.4272 20.2603 11.0208 22.5647 11.0208C23.6686 11.0208 24.6172 11.1028 24.8939 11.1397V13.8394L23.2956 13.8403C22.0422 13.8403 21.7997 14.4358 21.7997 15.3097V17.2369H24.7886L24.3994 20.2553H21.7997V28H26.8964C27.1891 27.9999 27.4698 27.8836 27.6768 27.6766C27.8837 27.4696 28 27.1888 28 26.8961V9.10389C28 8.81112 27.8837 8.53034 27.6767 8.32332C27.4697 8.1163 27.1889 8 26.8961 8Z" fill="#6BFCFC"/>
</g>
<defs>
<linearGradient id="paint0_linear_12_35" x1="35.579" y1="9.43728e-06" x2="-3.50413" y2="4.39123" gradientUnits="userSpaceOnUse">
<stop stop-color="#343FA1"/>
<stop offset="1" stop-color="#6350BB"/>
</linearGradient>
<clipPath id="clip0_12_35">
<rect x="8" y="8" width="20" height="20" rx="10" fill="white"/>
</clipPath>
</defs>
</svg>
