<svg width="1439" height="4" viewBox="0 0 1439 4" fill="none" xmlns="http://www.w3.org/2000/svg">
<path d="M1439 0L1253 1.62606e-05L1261 4.00002L1439 4L1439 0Z" fill="#36394F"/>
<path d="M-1 0L185 -1.62606e-05L177 3.99998L-1 4L-1 0Z" fill="#36394F"/>
<path d="M954.201 0L918.841 3.09127e-06L924.961 3L954.201 3L954.201 0Z" fill="#36394F"/>
<path d="M928.36 0L893 3.09127e-06L899.12 1.5L928.36 1.5L928.36 0Z" fill="#36394F"/>
<path d="M952.84 0L961 -7.1337e-07L959.588 3L952.84 3L952.84 0Z" fill="#36394F"/>
<path d="M307.799 0L343.159 -3.09127e-06L337.039 3L307.799 3L307.799 0Z" fill="#36394F"/>
<path d="M333.641 0L369.001 -3.09127e-06L362.881 1.5L333.641 1.5L333.641 0Z" fill="#36394F"/>
<path d="M309.16 0L301 7.1337e-07L302.412 3L309.16 3L309.16 0Z" fill="#36394F"/>
</svg>
