<svg width="20" height="20" viewBox="0 0 20 20" fill="none" xmlns="http://www.w3.org/2000/svg">
<path d="M10 0.25C8.07164 0.25 6.18657 0.821828 4.58319 1.89317C2.97982 2.96451 1.73013 4.48726 0.992179 6.26884C0.254225 8.05042 0.061142 10.0108 0.437348 11.9021C0.813554 13.7934 1.74215 15.5307 3.10571 16.8943C4.46928 18.2579 6.20656 19.1865 8.09787 19.5627C9.98919 19.9389 11.9496 19.7458 13.7312 19.0078C15.5127 18.2699 17.0355 17.0202 18.1068 15.4168C19.1782 13.8134 19.75 11.9284 19.75 10C19.745 7.41566 18.7162 4.93859 16.8888 3.11118C15.0614 1.28378 12.5843 0.254956 10 0.25ZM9.8125 4.75C10.035 4.75 10.2525 4.81598 10.4375 4.9396C10.6225 5.06321 10.7667 5.23891 10.8519 5.44448C10.937 5.65005 10.9593 5.87625 10.9159 6.09448C10.8725 6.31271 10.7653 6.51316 10.608 6.6705C10.4507 6.82783 10.2502 6.93498 10.032 6.97838C9.81375 7.02179 9.58755 6.99951 9.38199 6.91436C9.17642 6.82922 9.00072 6.68502 8.8771 6.50002C8.75348 6.31501 8.6875 6.0975 8.6875 5.875C8.6875 5.57663 8.80603 5.29048 9.01701 5.0795C9.22799 4.86853 9.51414 4.75 9.8125 4.75ZM10.75 15.25H10C9.80109 15.25 9.61033 15.171 9.46967 15.0303C9.32902 14.8897 9.25 14.6989 9.25 14.5V10C9.05109 10 8.86033 9.92098 8.71967 9.78033C8.57902 9.63968 8.5 9.44891 8.5 9.25C8.5 9.05109 8.57902 8.86032 8.71967 8.71967C8.86033 8.57902 9.05109 8.5 9.25 8.5H10C10.1989 8.5 10.3897 8.57902 10.5303 8.71967C10.671 8.86032 10.75 9.05109 10.75 9.25V13.75C10.9489 13.75 11.1397 13.829 11.2803 13.9697C11.421 14.1103 11.5 14.3011 11.5 14.5C11.5 14.6989 11.421 14.8897 11.2803 15.0303C11.1397 15.171 10.9489 15.25 10.75 15.25Z" fill="gray"/>
</svg>
