<svg width="20" height="22" viewBox="0 0 20 22" fill="none" xmlns="http://www.w3.org/2000/svg">
<path d="M18.9437 9.68748L3.14686 0.846852C2.88365 0.693361 2.58056 0.622059 2.27652 0.642106C1.97249 0.662152 1.68139 0.77263 1.44061 0.959352C1.19471 1.15337 1.01617 1.41991 0.930343 1.72114C0.844516 2.02238 0.855761 2.343 0.962482 2.63748L3.59686 9.99685C3.62351 10.0702 3.67187 10.1338 3.73551 10.179C3.79915 10.2242 3.87505 10.249 3.95311 10.25H10.7219C10.9165 10.2469 11.105 10.3178 11.2494 10.4483C11.3939 10.5787 11.4834 10.7592 11.5 10.9531C11.5064 11.0555 11.4917 11.1581 11.4569 11.2545C11.4221 11.351 11.3679 11.4393 11.2976 11.514C11.2273 11.5887 11.1424 11.6482 11.0483 11.6888C10.9541 11.7293 10.8525 11.7502 10.75 11.75H3.95311C3.87505 11.751 3.79915 11.7758 3.73551 11.821C3.67187 11.8662 3.62351 11.9297 3.59686 12.0031L0.962482 19.3625C0.883438 19.5892 0.85962 19.8315 0.893007 20.0693C0.926394 20.307 1.01602 20.5334 1.15445 20.7296C1.29287 20.9258 1.4761 21.0861 1.68892 21.1973C1.90174 21.3084 2.13801 21.3672 2.37811 21.3687C2.6336 21.3676 2.88483 21.3032 3.10936 21.1812L18.9437 12.3125C19.1757 12.1807 19.3686 11.9899 19.5028 11.7593C19.6371 11.5288 19.7078 11.2668 19.7078 11C19.7078 10.7332 19.6371 10.4712 19.5028 10.2406C19.3686 10.0101 19.1757 9.81922 18.9437 9.68748Z" fill="#7BF5FB"/>
</svg>
