<svg width="36" height="36" viewBox="0 0 36 36" fill="none" xmlns="http://www.w3.org/2000/svg">
<rect width="35.5789" height="35.5789" rx="17.7895" fill="url(#paint0_linear_12_50)"/>
<g clip-path="url(#clip0_12_50)">
<path fill-rule="evenodd" clip-rule="evenodd" d="M22.431 26.8808C22.7261 27.0898 23.1065 27.142 23.4457 27.0137C23.7849 26.8844 24.0342 26.5948 24.1094 26.2437C24.906 22.5 26.8383 13.0244 27.5634 9.61901C27.6184 9.36235 27.5267 9.0956 27.325 8.92418C27.1234 8.75276 26.8438 8.70326 26.5944 8.79585C22.7509 10.2185 10.9139 14.6598 6.07578 16.45C5.7687 16.5637 5.56886 16.8588 5.57895 17.1824C5.58995 17.5069 5.80811 17.7883 6.12253 17.8828C8.29228 18.5318 11.1404 19.4347 11.1404 19.4347C11.1404 19.4347 12.4714 23.4543 13.1653 25.4984C13.2524 25.7551 13.4531 25.9568 13.718 26.0264C13.982 26.0952 14.2644 26.0228 14.4614 25.8367C15.5761 24.7843 17.2994 23.1573 17.2994 23.1573C17.2994 23.1573 20.5738 25.558 22.431 26.8808ZM12.3384 18.9268L13.8775 24.0033L14.2194 20.7886C14.2194 20.7886 20.1659 15.4252 23.5557 12.3681C23.6547 12.2783 23.6684 12.1279 23.5859 12.0225C23.5044 11.9171 23.354 11.8923 23.2413 11.9638C19.3124 14.4728 12.3384 18.9268 12.3384 18.9268Z" fill="#6BFCFC"/>
</g>
<defs>
<linearGradient id="paint0_linear_12_50" x1="35.579" y1="9.43728e-06" x2="-3.50413" y2="4.39123" gradientUnits="userSpaceOnUse">
<stop stop-color="#343FA1"/>
<stop offset="1" stop-color="#6350BB"/>
</linearGradient>
<clipPath id="clip0_12_50">
<rect width="22" height="22" fill="white" transform="translate(5.57895 6)"/>
</clipPath>
</defs>
</svg>
