<svg width="36" height="36" viewBox="0 0 36 36" fill="none" xmlns="http://www.w3.org/2000/svg">
<g clip-path="url(#clip0_12_45)">
<rect width="35.5789" height="35.5789" rx="17.7895" fill="url(#paint0_linear_12_45)"/>
</g>
<g clip-path="url(#clip1_12_45)">
<path d="M28.5771 11.2453C27.8035 11.5882 26.9724 11.8198 26.0986 11.9245C27.0002 11.3851 27.6746 10.536 27.9962 9.53588C27.1492 10.039 26.2222 10.3931 25.2555 10.5829C24.6054 9.88877 23.7444 9.42871 22.806 9.27411C21.8677 9.11952 20.9046 9.27904 20.0662 9.72791C19.2278 10.1768 18.5611 10.8899 18.1695 11.7565C17.7779 12.6231 17.6834 13.5948 17.9007 14.5206C16.1844 14.4345 14.5055 13.9884 12.9728 13.2114C11.4401 12.4343 10.088 11.3437 9.00407 10.0103C8.63345 10.6496 8.42035 11.3908 8.42035 12.1802C8.41994 12.8909 8.59494 13.5906 8.92983 14.2174C9.26472 14.8442 9.74915 15.3786 10.3401 15.7733C9.65475 15.7515 8.98449 15.5663 8.38514 15.2331V15.2887C8.38507 16.2855 8.72984 17.2515 9.36095 18.0229C9.99206 18.7944 10.8706 19.3237 11.8476 19.5212C11.2118 19.6932 10.5452 19.7186 9.89817 19.5953C10.1738 20.4529 10.7107 21.2028 11.4338 21.7401C12.1568 22.2774 13.0298 22.5752 13.9305 22.5917C12.4015 23.7919 10.5133 24.443 8.56952 24.4401C8.2252 24.4402 7.88118 24.4201 7.53922 24.3799C9.51225 25.6485 11.809 26.3218 14.1547 26.3191C22.0951 26.3191 26.4359 19.7426 26.4359 14.0388C26.4359 13.8535 26.4313 13.6664 26.4229 13.4811C27.2673 12.8705 27.9961 12.1143 28.5753 11.2481L28.5771 11.2453Z" fill="#6BFCFC"/>
</g>
<defs>
<linearGradient id="paint0_linear_12_45" x1="35.579" y1="9.43728e-06" x2="-3.50413" y2="4.39123" gradientUnits="userSpaceOnUse">
<stop stop-color="#343FA1"/>
<stop offset="1" stop-color="#6350BB"/>
</linearGradient>
<clipPath id="clip0_12_45">
<rect width="35.5789" height="35.5789" rx="17.7895" fill="white"/>
</clipPath>
<clipPath id="clip1_12_45">
<rect x="6.67105" y="6.67102" width="22.2368" height="22.2368" rx="11.1184" fill="white"/>
</clipPath>
</defs>
</svg>
