<svg width="9" height="6" viewBox="0 0 9 6" fill="none" xmlns="http://www.w3.org/2000/svg">
<path d="M4.19095 5.46338C4.22535 5.51334 4.27138 5.55419 4.32508 5.58242C4.37878 5.61064 4.43853 5.62539 4.4992 5.62539C4.55986 5.62539 4.61962 5.61064 4.67331 5.58242C4.72701 5.55419 4.77305 5.51334 4.80745 5.46338L8.18245 0.588375C8.22151 0.532147 8.24442 0.466287 8.24869 0.397952C8.25295 0.329618 8.2384 0.261421 8.20663 0.200773C8.17486 0.140124 8.12707 0.0893432 8.06846 0.0539468C8.00985 0.0185505 7.94267 -0.000107379 7.8742 4.6487e-07H1.1242C1.05589 0.000282618 0.98895 0.0191804 0.930578 0.0546616C0.872207 0.0901427 0.824612 0.140865 0.792911 0.201373C0.761211 0.261881 0.746605 0.329886 0.750664 0.398075C0.754723 0.466263 0.777293 0.532055 0.815948 0.588375L4.19095 5.46338Z" fill="white"/>
</svg>
