<svg width="106" height="106" viewBox="0 0 106 106" fill="none"
    xmlns="http://www.w3.org/2000/svg">
    <circle cx="53" cy="53" r="50.5" stroke="white" stroke-opacity="0.13" stroke-width="5"/>
    <path d="M102.278 53C104.333 53 106.014 51.3313 105.869 49.2805C105.224 40.1073 102.201 31.2364 97.0679 23.5548C91.2442 14.839 82.9667 8.04583 73.2822 4.03438C63.5977 0.0229402 52.9412 -1.02664 42.6602 1.01838C32.3792 3.0634 22.9355 8.11116 15.5233 15.5233C8.11116 22.9355 3.0634 32.3792 1.01838 42.6602C-1.02664 52.9412 0.0229403 63.5977 4.03438 73.2822C8.04583 82.9667 14.839 91.2442 23.5548 97.0679C31.2364 102.201 40.1073 105.224 49.2805 105.869C51.3313 106.014 53 104.333 53 102.278V102.278C53 100.222 51.3306 98.571 49.2816 98.4033C41.5824 97.7728 34.1478 95.1922 27.6909 90.8778C20.1993 85.8721 14.3604 78.7574 10.9124 70.4332C7.46448 62.1091 6.56233 52.9495 8.32009 44.1126C10.0778 35.2758 14.4166 27.1586 20.7876 20.7876C27.1586 14.4166 35.2758 10.0778 44.1126 8.32009C52.9495 6.56233 62.1091 7.46448 70.4332 10.9124C78.7574 14.3604 85.8721 20.1993 90.8778 27.6909C95.1922 34.1478 97.7728 41.5824 98.4033 49.2816C98.571 51.3306 100.222 53 102.278 53V53Z" fill="#6BFCFC"/>
    <path d="M33.732 63H31.1C30.932 63 30.8107 62.9533 30.736 62.86C30.68 62.748 30.6987 62.5987 30.792 62.412L36.7 48.244H30.12C29.728 48.244 29.532 48.048 29.532 47.656V45.584C29.532 45.192 29.728 44.996 30.12 44.996H39.92C40.312 44.996 40.508 45.192 40.508 45.584V47.936C40.508 48.3093 40.3773 48.8133 40.116 49.448L34.684 62.468C34.5347 62.8227 34.2173 63 33.732 63ZM48.7026 53.844H47.3866C46.9013 53.844 46.5279 54.04 46.2666 54.432C46.0239 54.824 45.7626 55.02 45.4826 55.02H43.1586C42.7666 55.02 42.5706 54.8333 42.5706 54.46V45.584C42.5706 45.192 42.7666 44.996 43.1586 44.996H52.9026C53.2946 44.996 53.4906 45.192 53.4906 45.584V47.712C53.4906 48.104 53.2946 48.3 52.9026 48.3H46.1266V52.416C46.4439 51.4827 47.2279 51.016 48.4786 51.016H49.6546C52.5479 51.016 53.9946 52.4627 53.9946 55.356V58.436C53.9946 59.892 53.5933 61.0213 52.7906 61.824C51.9879 62.608 50.8586 63 49.4026 63H46.9386C45.4639 63 44.3253 62.608 43.5226 61.824C42.7199 61.04 42.3186 59.9107 42.3186 58.436V57.876C42.3186 57.4653 42.5146 57.26 42.9066 57.26H45.2866C45.6786 57.26 45.8746 57.4653 45.8746 57.876V58.408C45.8746 58.9867 45.9959 59.4067 46.2386 59.668C46.4999 59.9107 46.9199 60.032 47.4986 60.032H48.8146C49.4119 60.032 49.8506 59.9107 50.1306 59.668C50.4106 59.4067 50.5506 58.9867 50.5506 58.408V55.888C50.5506 55.104 50.4199 54.572 50.1586 54.292C49.8973 53.9933 49.4119 53.844 48.7026 53.844ZM71.0987 56.42H70.4547C70.044 56.42 69.764 56.504 69.6147 56.672C69.4653 56.8213 69.3907 57.092 69.3907 57.484V59.92C69.3907 60.3307 69.4653 60.62 69.6147 60.788C69.764 60.9373 70.044 61.012 70.4547 61.012H71.0987C71.4907 61.012 71.7613 60.928 71.9107 60.76C72.0787 60.592 72.1627 60.312 72.1627 59.92V57.484C72.1627 57.092 72.088 56.8213 71.9387 56.672C71.7893 56.504 71.5093 56.42 71.0987 56.42ZM69.9227 54.432H71.5747C72.5453 54.432 73.2827 54.684 73.7867 55.188C74.2907 55.692 74.5427 56.42 74.5427 57.372V60.06C74.5427 61.012 74.2907 61.74 73.7867 62.244C73.2827 62.748 72.5453 63 71.5747 63H69.9227C68.9707 63 68.2333 62.748 67.7107 62.244C67.2067 61.74 66.9547 61.012 66.9547 60.06V57.372C66.9547 56.42 67.2067 55.692 67.7107 55.188C68.2333 54.684 68.9707 54.432 69.9227 54.432ZM60.7387 46.956H60.0947C59.684 46.956 59.404 47.04 59.2547 47.208C59.1053 47.3573 59.0307 47.6373 59.0307 48.048V50.484C59.0307 50.876 59.1053 51.156 59.2547 51.324C59.404 51.4733 59.684 51.548 60.0947 51.548H60.7387C61.1493 51.548 61.4293 51.4733 61.5787 51.324C61.728 51.156 61.8027 50.876 61.8027 50.484V48.048C61.8027 47.656 61.7187 47.376 61.5507 47.208C61.4013 47.04 61.1307 46.956 60.7387 46.956ZM59.5907 44.968H61.2427C62.2133 44.968 62.9507 45.22 63.4547 45.724C63.9587 46.228 64.2107 46.956 64.2107 47.908V50.596C64.2107 51.548 63.9587 52.276 63.4547 52.78C62.9507 53.284 62.2133 53.536 61.2427 53.536H59.5907C58.6387 53.536 57.9013 53.284 57.3787 52.78C56.8747 52.276 56.6227 51.548 56.6227 50.596V47.908C56.6227 46.956 56.8747 46.228 57.3787 45.724C57.9013 45.22 58.6387 44.968 59.5907 44.968ZM62.8107 63H61.3547C60.9253 63 60.7853 62.804 60.9347 62.412C61.532 60.8813 62.6427 58.0813 64.2667 54.012C65.8907 49.924 67.0013 47.1147 67.5987 45.584C67.7667 45.192 68.0093 44.996 68.3267 44.996H69.8107C70.24 44.996 70.38 45.192 70.2307 45.584L63.5667 62.412C63.4173 62.804 63.1653 63 62.8107 63Z" fill="white"/>
</svg>
