<svg width="38" height="38" viewBox="0 0 38 38" fill="none" xmlns="http://www.w3.org/2000/svg">
<g filter="url(#filter0_b_448_29)">
<rect width="38" height="38" rx="2" fill="#7BF5FB" fill-opacity="0.2"/>
<rect x="0.5" y="0.5" width="37" height="37" rx="1.5" stroke="#7BF5FB"/>
</g>
<g clip-path="url(#clip0_448_29)">
<path d="M27.9437 17.6875L12.1469 8.84685C11.8836 8.69336 11.5806 8.62206 11.2765 8.64211C10.9725 8.66215 10.6814 8.77263 10.4406 8.95935C10.1947 9.15337 10.0162 9.41991 9.93034 9.72114C9.84452 10.0224 9.85576 10.343 9.96248 10.6375L12.5969 17.9969C12.6235 18.0702 12.6719 18.1338 12.7355 18.179C12.7991 18.2242 12.875 18.249 12.9531 18.25H19.7219C19.9165 18.2469 20.105 18.3178 20.2494 18.4483C20.3939 18.5787 20.4834 18.7592 20.5 18.9531C20.5064 19.0555 20.4917 19.1581 20.4569 19.2545C20.4221 19.351 20.3679 19.4393 20.2976 19.514C20.2273 19.5887 20.1424 19.6482 20.0483 19.6888C19.9541 19.7293 19.8525 19.7502 19.75 19.75H12.9531C12.875 19.751 12.7991 19.7758 12.7355 19.821C12.6719 19.8662 12.6235 19.9297 12.5969 20.0031L9.96248 27.3625C9.88344 27.5892 9.85962 27.8315 9.89301 28.0693C9.92639 28.307 10.016 28.5334 10.1544 28.7296C10.2929 28.9258 10.4761 29.0861 10.6889 29.1973C10.9017 29.3084 11.138 29.3672 11.3781 29.3687C11.6336 29.3676 11.8848 29.3032 12.1094 29.1812L27.9437 20.3125C28.1757 20.1807 28.3686 19.9899 28.5028 19.7593C28.6371 19.5288 28.7078 19.2668 28.7078 19C28.7078 18.7332 28.6371 18.4712 28.5028 18.2406C28.3686 18.0101 28.1757 17.8192 27.9437 17.6875V17.6875Z" fill="#7BF5FB"/>
</g>
<defs>
<filter id="filter0_b_448_29" x="-60" y="-60" width="158" height="158" filterUnits="userSpaceOnUse" color-interpolation-filters="sRGB">
<feFlood flood-opacity="0" result="BackgroundImageFix"/>
<feGaussianBlur in="BackgroundImageFix" stdDeviation="30"/>
<feComposite in2="SourceAlpha" operator="in" result="effect1_backgroundBlur_448_29"/>
<feBlend mode="normal" in="SourceGraphic" in2="effect1_backgroundBlur_448_29" result="shape"/>
</filter>
<clipPath id="clip0_448_29">
<rect width="24" height="24" fill="white" transform="translate(7 7)"/>
</clipPath>
</defs>
</svg>
